<?xml version="1.0" encoding="utf-8"?>
<!-- Generator: Adobe Illustrator 21.0.0, SVG Export Plug-In . SVG Version: 6.00 Build 0)  -->
<svg version="1.1" id="Слой_1" xmlns="http://www.w3.org/2000/svg" xmlns:xlink="http://www.w3.org/1999/xlink" x="0px" y="0px"
	 viewBox="0 0 960 640" width="960" height="640" style="enable-background:new 0 0 960 640;" xml:space="preserve">
<style type="text/css">
	.st0{fill:none;}
	.st1{fill:#EDEDED;}
	.st2{enable-background:new    ;}
	.st3{fill:#FFFFFF;}
</style>
<path class="st0" d="M843.8,20.1"/>
<rect x="-3.1" y="-43.6" class="st1" width="968.3" height="730"/>
<g class="st2">
	<path class="st3" d="M166.6,348.7h-16.9v-63.3h37.5v13.7h-20.5v12.1h19V325h-19L166.6,348.7L166.6,348.7z"/>
	<path class="st3" d="M197.7,348.7v-63.3h17.2v63.3H197.7z"/>
	<path class="st3" d="M285.7,348.7h-19.8l-12.3-19.8l-12.3,19.8h-19.4l21-32.4l-20-30.9h19l11.4,19.6l11-19.6h19.9l-20.1,32.2
		L285.7,348.7z"/>
	<path class="st3" d="M343.9,348.7h-17.2v-49.4h-15.5v-14.1h48.1v14.1h-15.4V348.7z"/>
	<path class="st3" d="M422.7,348.7h-17.2v-25.9h-19.8v25.9h-17.2v-63.3h17.2v23.4h19.8v-23.6h17.2V348.7z"/>
	<path class="st3" d="M474.1,348.7h-37.6v-63.3h37.6v13.7h-20.5v9.9h19v13.7h-19v12h20.5V348.7z"/>
	<path class="st3" d="M554.2,305.5c0,7.1-2,12.6-6.2,16.4c-4.2,3.8-10.1,5.8-17.8,5.8h-4.9v21h-17.2v-63.4H530
		c8,0,14.1,1.8,18.1,5.2C552.1,294,554.2,299,554.2,305.5z M525.3,313.8h3.1c2.5,0,4.6-0.7,6.1-2.2c1.5-1.5,2.2-3.4,2.2-5.9
		c0-4.3-2.4-6.4-7.1-6.4h-4.4v14.5H525.3z"/>
	<path class="st3" d="M618.8,348.7h-17.2v-25.9h-19.8v25.9h-17.2v-63.3h17.2v23.4h19.8v-23.6h17.2V348.7z"/>
	<path class="st3" d="M691.8,316.9c0,10.6-2.7,18.8-7.9,24.3c-5.2,5.5-12.8,8.3-22.9,8.3c-9.9,0-17.6-2.8-22.9-8.4
		c-5.3-5.6-8-13.7-8-24.4c0-10.5,2.7-18.7,7.9-24.1s12.8-8.3,22.9-8.3c10.1,0,17.8,2.8,22.9,8.3
		C688.9,297.9,691.8,306.3,691.8,316.9z M648.1,316.9c0,12.3,4.3,18.3,12.8,18.3c4.3,0,7.5-1.5,9.7-4.4c2-2.9,3.1-7.5,3.1-13.9
		s-1.1-11-3.3-14.1c-2.2-3.1-5.3-4.6-9.5-4.6C652.4,298.4,648.1,304.6,648.1,316.9z"/>
	<path class="st3" d="M731.1,348.7h-17.2v-49.4h-15.5v-14.1h48.1v14.1h-15.4V348.7z"/>
	<path class="st3" d="M815.1,316.9c0,10.6-2.7,18.8-7.9,24.3c-5.2,5.5-12.8,8.3-22.9,8.3c-9.9,0-17.6-2.8-22.9-8.4
		c-5.3-5.6-8-13.7-8-24.4c0-10.5,2.7-18.7,7.9-24.1s12.8-8.3,22.9-8.3c10.1,0,17.8,2.8,22.9,8.3C812.2,298,815.1,306.3,815.1,316.9z
		 M771.4,316.9c0,12.3,4.3,18.3,12.8,18.3c4.3,0,7.5-1.5,9.7-4.4s3.1-7.5,3.1-13.9s-1.1-11-3.3-14.1c-2.2-3.1-5.3-4.6-9.5-4.6
		C775.7,298.4,771.4,304.6,771.4,316.9z"/>
</g>
</svg>
